@startuml
class PlayerScriptableObject {
    + Health : int
    + Money : int
}
class "List`1"<T> {
}
ScriptableObject <|-- PlayerScriptableObject
PlayerScriptableObject --> "MonkeyScriptableObjects<MonkeyScriptableObject>" "List`1"
PlayerScriptableObject --> "ProjectileScriptableObjects<ProjectileScriptableObject>" "List`1"
PlayerScriptableObject --> "ProjectilePrefab" ProjectileView
@enduml
